<?xml version="1.0" encoding="UTF-8" standalone="no"?>
<!-- Generator: Adobe Illustrator 19.0.0, SVG Export Plug-In . SVG Version: 6.00 Build 0)  -->

<svg
   xmlns:dc="http://purl.org/dc/elements/1.1/"
   xmlns:cc="http://creativecommons.org/ns#"
   xmlns:rdf="http://www.w3.org/1999/02/22-rdf-syntax-ns#"
   xmlns:svg="http://www.w3.org/2000/svg"
   xmlns="http://www.w3.org/2000/svg"
   xmlns:sodipodi="http://sodipodi.sourceforge.net/DTD/sodipodi-0.dtd"
   xmlns:inkscape="http://www.inkscape.org/namespaces/inkscape"
   version="1.1"
   id="Capa_1"
   x="0px"
   y="0px"
   viewBox="0 0 294.834 294.834"
   style="enable-background:new 0 0 294.834 294.834;"
   xml:space="preserve"
   width="512px"
   height="512px"
   sodipodi:docname="maximize.svg"
   inkscape:version="0.92.0 r15299"><metadata
   id="metadata5242"><rdf:RDF><cc:Work
       rdf:about=""><dc:format>image/svg+xml</dc:format><dc:type
         rdf:resource="http://purl.org/dc/dcmitype/StillImage" /></cc:Work></rdf:RDF></metadata><defs
   id="defs5240" /><sodipodi:namedview
   pagecolor="#ffffff"
   bordercolor="#666666"
   borderopacity="1"
   objecttolerance="10"
   gridtolerance="10"
   guidetolerance="10"
   inkscape:pageopacity="0"
   inkscape:pageshadow="2"
   inkscape:window-width="1600"
   inkscape:window-height="838"
   id="namedview5238"
   showgrid="false"
   inkscape:zoom="0.32593203"
   inkscape:cx="262.29043"
   inkscape:cy="285.65488"
   inkscape:window-x="-8"
   inkscape:window-y="-8"
   inkscape:window-maximized="1"
   inkscape:current-layer="Capa_1" />
<g
   id="g5205"
   style="fill:#ffffff;fill-opacity:1">
	<path
   d="M288.834,0H47.413c-3.313,0-6,2.687-6,6v17.398c0,3.313,2.687,6,6,6s6-2.687,6-6V12h229.421v229.421h-11.398   c-3.313,0-6,2.687-6,6s2.687,6,6,6h17.398c3.313,0,6-2.687,6-6V6C294.834,2.687,292.147,0,288.834,0z"
   fill="#FFFFFF"
   id="path5201"
   style="fill:#ffffff;fill-opacity:1" />
	<path
   d="M247.421,41.413H6c-3.313,0-6,2.687-6,6v241.421c0,3.313,2.687,6,6,6h241.421c3.313,0,6-2.687,6-6V47.413   C253.421,44.1,250.734,41.413,247.421,41.413z M241.421,282.834H12V53.413h229.421V282.834z"
   fill="#FFFFFF"
   id="path5203"
   style="fill:#ffffff;fill-opacity:1" />
</g>
<g
   id="g5207">
</g>
<g
   id="g5209">
</g>
<g
   id="g5211">
</g>
<g
   id="g5213">
</g>
<g
   id="g5215">
</g>
<g
   id="g5217">
</g>
<g
   id="g5219">
</g>
<g
   id="g5221">
</g>
<g
   id="g5223">
</g>
<g
   id="g5225">
</g>
<g
   id="g5227">
</g>
<g
   id="g5229">
</g>
<g
   id="g5231">
</g>
<g
   id="g5233">
</g>
<g
   id="g5235">
</g>
</svg>